<?xml version="1.0" standalone="no"?>
<!DOCTYPE svg PUBLIC "-//W3C//DTD SVG 20010904//EN"
 "http://www.w3.org/TR/2001/REC-SVG-20010904/DTD/svg10.dtd">
<svg version="1.0" xmlns="http://www.w3.org/2000/svg"
 width="64.000000pt" height="64.000000pt" viewBox="0 0 64.000000 64.000000"
 preserveAspectRatio="xMidYMid meet">

<g transform="translate(0.000000,64.000000) scale(0.100000,-0.100000)"
fill="#000000" stroke="none">
<path d="M290 560 c-15 -15 -34 -20 -77 -21 -36 0 -69 -7 -88 -18 l-30 -18 0
-203 0 -203 30 -18 c25 -15 56 -18 195 -18 139 0 170 3 195 18 l30 18 0 203 0
203 -30 18 c-19 11 -52 18 -87 18 -44 1 -63 6 -78 21 -11 11 -24 20 -30 20 -5
0 -19 -9 -30 -20z m58 -32 c3 -25 0 -28 -27 -28 -26 0 -31 4 -31 23 0 30 9 39
35 35 13 -2 21 -12 23 -30z m-78 -28 c0 -17 7 -20 50 -20 43 0 50 3 50 20 0
18 7 20 60 20 l60 0 0 -220 0 -220 -170 0 -170 0 0 220 0 220 60 0 c53 0 60
-2 60 -20z m-140 -200 c0 -127 -4 -200 -10 -200 -6 0 -10 73 -10 200 0 127 4
200 10 200 6 0 10 -73 10 -200z m400 0 c0 -127 -4 -200 -10 -200 -6 0 -10 73
-10 200 0 127 4 200 10 200 6 0 10 -73 10 -200z"/>
<path d="M229 429 c-15 -15 -20 -29 -16 -48 3 -15 -1 -34 -9 -45 -8 -11 -14
-28 -14 -38 0 -16 9 -18 70 -18 61 0 70 2 70 18 0 10 -6 27 -14 38 -8 11 -12
30 -9 45 5 27 -24 69 -47 69 -5 0 -19 -9 -31 -21z m56 -39 c0 -31 -3 -35 -25
-35 -19 0 -26 6 -28 23 -5 36 5 54 30 50 19 -2 23 -9 23 -38z m17 -64 c15 -21
7 -26 -42 -26 -35 0 -50 4 -50 13 0 8 3 16 6 19 9 10 79 5 86 -6z"/>
<path d="M370 440 c0 -5 23 -10 50 -10 28 0 50 5 50 10 0 6 -22 10 -50 10 -27
0 -50 -4 -50 -10z"/>
<path d="M370 400 c0 -5 23 -10 50 -10 28 0 50 5 50 10 0 6 -22 10 -50 10 -27
0 -50 -4 -50 -10z"/>
<path d="M370 360 c0 -5 18 -10 40 -10 22 0 40 5 40 10 0 6 -18 10 -40 10 -22
0 -40 -4 -40 -10z"/>
<path d="M370 320 c0 -5 14 -10 30 -10 17 0 30 5 30 10 0 6 -13 10 -30 10 -16
0 -30 -4 -30 -10z"/>
<path d="M190 230 c0 -5 16 -10 35 -10 19 0 35 5 35 10 0 6 -16 10 -35 10 -19
0 -35 -4 -35 -10z"/>
<path d="M280 230 c0 -5 20 -10 45 -10 25 0 45 5 45 10 0 6 -20 10 -45 10 -25
0 -45 -4 -45 -10z"/>
<path d="M190 190 c0 -5 16 -10 35 -10 19 0 35 5 35 10 0 6 -16 10 -35 10 -19
0 -35 -4 -35 -10z"/>
<path d="M280 190 c0 -5 20 -10 45 -10 25 0 45 5 45 10 0 6 -20 10 -45 10 -25
0 -45 -4 -45 -10z"/>
<path d="M390 165 c0 -22 4 -25 40 -25 36 0 40 3 40 25 0 23 -4 25 -40 25 -36
0 -40 -2 -40 -25z"/>
<path d="M190 150 c0 -5 16 -10 35 -10 19 0 35 5 35 10 0 6 -16 10 -35 10 -19
0 -35 -4 -35 -10z"/>
<path d="M280 150 c0 -5 20 -10 45 -10 25 0 45 5 45 10 0 6 -20 10 -45 10 -25
0 -45 -4 -45 -10z"/>
</g>
</svg>
